# Blender v2.92.0 OBJ File: 'Anim_Fire.blend'
# www.blender.org
mtllib Anim_Fire_000026.mtl
o Front_Plane.003
v 1.000000 -0.000000 1.000000
v 1.000000 2.000000 1.000000
v -1.000000 0.000000 1.000000
v -1.000000 2.000000 1.000000
vt 0.007371 0.998003
vt 0.993358 -0.001226
vt 0.006258 -0.000818
vt 0.994471 0.997595
vn 0.0000 -0.0000 1.0000
usemtl Fire
s off
f 2/1/1 3/2/1 1/3/1
f 2/1/1 4/4/1 3/2/1
o Back_Plane.004
v 1.000000 0.000000 1.000000
v 1.000000 2.000000 1.000000
v 1.000000 0.000000 -1.000000
v 1.000000 2.000000 -1.000000
vt 0.007371 0.998003
vt 0.993358 -0.001226
vt 0.006258 -0.000818
vt 0.994471 0.997595
vn -1.0000 0.0000 0.0000
usemtl Fire.001
s off
f 6/5/2 7/6/2 5/7/2
f 6/5/2 8/8/2 7/6/2
o Left_Plane.005
v 1.000000 0.000000 -1.000000
v 1.000000 2.000000 -1.000000
v -1.000000 0.000000 -1.000000
v -1.000000 2.000000 -1.000000
vt 0.007371 0.998003
vt 0.993358 -0.001226
vt 0.006258 -0.000818
vt 0.994471 0.997595
vn 0.0000 0.0000 1.0000
usemtl Fire.002
s off
f 10/9/3 11/10/3 9/11/3
f 10/9/3 12/12/3 11/10/3
o Back.001_Plane.006
v -1.000000 0.000000 1.000000
v -1.000000 2.000000 1.000000
v -1.000000 0.000000 -1.000000
v -1.000000 2.000000 -1.000000
vt 0.007371 0.998003
vt 0.993358 -0.001226
vt 0.006258 -0.000818
vt 0.994471 0.997595
vn -1.0000 0.0000 0.0000
usemtl Fire.003
s off
f 14/13/4 15/14/4 13/15/4
f 14/13/4 16/16/4 15/14/4
o Left.001_Plane.007
v 1.000000 0.007161 0.500000
v 1.000000 1.739212 -0.500000
v -1.000000 0.007161 0.500000
v -1.000000 1.739211 -0.500000
vt 0.007371 0.998003
vt 0.993358 -0.001226
vt 0.006258 -0.000818
vt 0.994471 0.997595
vn 0.0000 0.5000 0.8660
usemtl Fire.004
s off
f 18/17/5 19/18/5 17/19/5
f 18/17/5 20/20/5 19/18/5
o Left.002_Plane.008
v 1.000000 0.007161 -0.500000
v 1.000000 1.739211 0.500000
v -1.000000 0.007161 -0.500000
v -1.000000 1.739212 0.500000
vt 0.007371 0.998003
vt 0.993358 -0.001226
vt 0.006258 -0.000818
vt 0.994471 0.997595
vn 0.0000 -0.5000 0.8660
usemtl Fire.005
s off
f 22/21/6 23/22/6 21/23/6
f 22/21/6 24/24/6 23/22/6
o Left.003_Plane.009
v -0.498355 0.007161 1.000821
v 0.501644 1.739212 0.999176
v -0.501644 0.007161 -0.999176
v 0.498355 1.739211 -1.000821
vt 0.007371 0.998003
vt 0.993358 -0.001226
vt 0.006258 -0.000818
vt 0.994471 0.997595
vn -0.8660 0.5000 0.0014
usemtl Fire.006
s off
f 26/25/7 27/26/7 25/27/7
f 26/25/7 28/28/7 27/26/7
o Left.004_Plane.010
v 0.501644 0.007161 0.999176
v -0.498355 1.739211 1.000821
v 0.498355 0.007161 -1.000821
v -0.501644 1.739212 -0.999176
vt 0.007371 0.998003
vt 0.993358 -0.001226
vt 0.006258 -0.000818
vt 0.994471 0.997595
vn -0.8660 -0.5000 0.0014
usemtl Fire.007
s off
f 30/29/8 31/30/8 29/31/8
f 30/29/8 32/32/8 31/30/8
