# Blender v2.82 (sub 7) OBJ File: 'Model_Block.blend'
# www.blender.org
mtllib Anim_Blast_15.mtl
o Cube
v 1.000000 2.000000 -1.000000
v 1.000000 0.000000 -1.000000
v 1.000000 2.000000 1.000000
v 1.000000 0.000000 1.000000
v -1.000000 2.000000 -1.000000
v -1.000000 0.000000 -1.000000
v -1.000000 2.000000 1.000000
v -1.000000 0.000000 1.000000
vt 0.003406 0.998548
vt 0.996594 0.005359
vt 0.996594 0.998548
vt 0.003406 0.005359
vt 0.998912 0.998346
vt 0.001088 0.001654
vt 0.998346 0.001089
vt 0.998516 1.004912
vt 0.001484 -0.004912
vt 1.004912 0.001484
vt 0.996529 1.004619
vt 0.003471 0.003193
vt 1.000713 0.007377
vt 0.996723 1.001353
vt 0.003277 -0.001353
vt 1.001353 0.003277
vt 0.001654 0.998912
vt -0.004912 0.998516
vt -0.000713 1.000435
vt -0.001353 0.996723
vt 0.997517 0.002483
vt 0.002483 0.997517
vt 0.002483 0.002483
vt 0.997517 0.997517
vn 0.0000 1.0000 0.0000
vn 0.0000 0.0000 1.0000
vn -1.0000 0.0000 0.0000
vn 1.0000 0.0000 0.0000
vn 0.0000 0.0000 -1.0000
vn 0.0000 -1.0000 0.0000
usemtl Top
s off
f 5/1/1 3/2/1 1/3/1
f 5/1/1 7/4/1 3/2/1
usemtl Side
f 3/5/2 8/6/2 4/7/2
f 7/8/3 6/9/3 8/10/3
f 1/11/4 4/12/4 2/13/4
f 5/14/5 2/15/5 6/16/5
f 3/5/2 7/17/2 8/6/2
f 7/8/3 5/18/3 6/9/3
f 1/11/4 3/19/4 4/12/4
f 5/14/5 1/20/5 2/15/5
usemtl Bottom
f 2/21/6 8/22/6 6/23/6
f 2/21/6 4/24/6 8/22/6
o Bottom_Plane
v -1.000000 -0.010000 1.000000
v 1.000000 -0.010000 1.000000
v -1.000000 -0.010000 -1.000000
v 1.000000 -0.010000 -1.000000
vt 1.000000 0.000000
vt 0.000000 1.000000
vt 0.000000 0.000000
vt 1.000000 1.000000
vn 0.0000 1.0000 0.0000
usemtl Bottom
s off
f 10/25/7 11/26/7 9/27/7
f 10/25/7 12/28/7 11/26/7
o Top_Plane.001
v -1.000000 2.010000 1.000000
v 1.000000 2.010000 1.000000
v -1.000000 2.010000 -1.000000
v 1.000000 2.010000 -1.000000
vt 1.000000 0.000000
vt 0.000000 1.000000
vt 0.000000 0.000000
vt 1.000000 1.000000
vn 0.0000 1.0000 0.0000
usemtl Top
s off
f 14/29/8 15/30/8 13/31/8
f 14/29/8 16/32/8 15/30/8
