# Blender v2.92.0 OBJ File: 'Anim_Death.blend'
# www.blender.org
mtllib Anim_Death_000001.mtl
o Left_Arm_Cube
v 1.919205 6.137837 -0.526030
v 2.361895 3.170833 -0.495871
v 1.919205 6.148002 0.473919
v 2.361895 3.180997 0.504077
v 0.930152 5.990282 -0.524530
v 1.372842 3.023277 -0.494371
v 0.930152 6.000446 0.475419
v 1.372842 3.033442 0.505577
vt 0.875093 0.186814
vt 0.812176 0.249731
vt 0.812176 0.186814
vt 0.874495 0.187259
vt 0.812638 0.000417
vt 0.874495 0.000417
vt 0.812513 0.186575
vt 0.749931 0.000793
vt 0.812513 0.000793
vt 0.875069 0.187278
vt 0.937377 0.249586
vt 0.875069 0.249586
vt 0.936512 0.000111
vt 0.874765 0.186938
vt 0.874765 0.000111
vt 1.000144 -0.000454
vt 0.936967 0.186760
vt 0.936967 -0.000454
vt 0.875093 0.249731
vt 0.812638 0.187259
vt 0.749931 0.186575
vt 0.937377 0.187278
vt 0.936512 0.186938
vt 1.000144 0.186760
vn -0.1476 0.9890 -0.0101
vn 0.0000 0.0102 0.9999
vn -0.9891 -0.1476 0.0015
vn 0.1476 -0.9890 0.0101
vn 0.9891 0.1476 -0.0015
vn 0.0000 -0.0102 -0.9999
usemtl Texture_Test
s off
f 5/1/1 3/2/1 1/3/1
f 3/4/2 8/5/2 4/6/2
f 7/7/3 6/8/3 8/9/3
f 6/10/4 4/11/4 8/12/4
f 2/13/5 3/14/5 4/15/5
f 6/16/6 1/17/6 2/18/6
f 5/1/1 7/19/1 3/2/1
f 3/4/2 7/20/2 8/5/2
f 7/7/3 5/21/3 6/8/3
f 6/10/4 2/22/4 4/11/4
f 2/13/5 1/23/5 3/14/5
f 6/16/6 5/24/6 1/17/6
o Head_Cube.001
v 1.000000 8.062400 -1.045618
v 1.000000 6.062503 -1.025290
v 1.000000 8.082728 0.954279
v 1.000000 6.082831 0.974607
v -1.000000 8.062400 -1.045618
v -1.000000 6.062503 -1.025290
v -1.000000 8.082728 0.954279
v -1.000000 6.082831 0.974607
vt 0.748104 0.877018
vt 0.625442 0.999680
vt 0.625442 0.877018
vt 0.750840 0.875006
vt 0.626626 0.750791
vt 0.750840 0.750791
vt 0.624792 0.875246
vt 0.500737 0.751191
vt 0.624792 0.751191
vt 0.874158 0.875380
vt 0.749344 1.000194
vt 0.749344 0.875380
vt 0.874289 0.874923
vt 0.749639 0.750273
vt 0.874289 0.750273
vt 0.998300 0.874639
vt 0.874295 0.750634
vt 0.998300 0.750634
vt 0.748104 0.999680
vt 0.626626 0.875006
vt 0.500737 0.875246
vt 0.874158 1.000194
vt 0.749639 0.874923
vt 0.874295 0.874639
vn 0.0000 0.9999 -0.0102
vn 0.0000 0.0102 0.9999
vn -1.0000 0.0000 0.0000
vn 0.0000 -0.9999 0.0102
vn 1.0000 0.0000 0.0000
vn 0.0000 -0.0102 -0.9999
usemtl Texture_Test
s off
f 13/25/7 11/26/7 9/27/7
f 11/28/8 16/29/8 12/30/8
f 15/31/9 14/32/9 16/33/9
f 10/34/10 16/35/10 14/36/10
f 9/37/11 12/38/11 10/39/11
f 13/40/12 10/41/12 14/42/12
f 13/25/7 15/43/7 11/26/7
f 11/28/8 15/44/8 16/29/8
f 15/31/9 13/45/9 14/32/9
f 10/34/10 12/46/10 16/35/10
f 9/37/11 11/47/11 12/38/11
f 13/40/12 9/48/12 10/41/12
o Body_Cube.002
v 1.000000 6.067586 -0.525316
v 1.000000 3.067741 -0.494823
v 1.000000 6.077750 0.474633
v 1.000000 3.077905 0.505125
v -1.000000 6.067586 -0.525316
v -1.000000 3.067741 -0.494823
v -1.000000 6.077750 0.474633
v -1.000000 3.077905 0.505125
vt 0.436976 0.438001
vt 0.313244 0.500278
vt 0.313244 0.438001
vt 0.437696 0.437953
vt 0.312640 0.249999
vt 0.437696 0.249999
vt 0.312183 0.437289
vt 0.251093 0.250593
vt 0.312183 0.250593
vt 0.561968 0.438339
vt 0.438265 0.499810
vt 0.438265 0.438339
vt 0.499376 0.249672
vt 0.438677 0.437568
vt 0.438677 0.249672
vt 0.625110 0.437880
vt 0.499250 0.249749
vt 0.625110 0.249749
vt 0.436976 0.500278
vt 0.312640 0.437953
vt 0.251093 0.437289
vt 0.561968 0.499810
vt 0.499376 0.437568
vt 0.499250 0.437880
vn 0.0000 0.9999 -0.0102
vn 0.0000 0.0102 0.9999
vn -1.0000 0.0000 0.0000
vn 0.0000 -0.9999 0.0102
vn 1.0000 0.0000 0.0000
vn 0.0000 -0.0102 -0.9999
usemtl Texture_Test
s off
f 21/49/13 19/50/13 17/51/13
f 19/52/14 24/53/14 20/54/14
f 23/55/15 22/56/15 24/57/15
f 18/58/16 24/59/16 22/60/16
f 18/61/17 19/62/17 20/63/17
f 21/64/18 18/65/18 22/66/18
f 21/49/13 23/67/13 19/50/13
f 19/52/14 23/68/14 24/53/14
f 23/55/15 21/69/15 22/56/15
f 18/58/16 20/70/16 24/59/16
f 18/61/17 17/71/17 19/62/17
f 21/64/18 17/72/18 18/65/18
o Right_Arm_Cube.003
v -0.926652 5.991413 -0.524541
v -1.375352 3.025312 -0.494392
v -0.926652 6.001577 0.475407
v -1.375352 3.035476 0.505556
v -1.915403 6.140972 -0.526061
v -2.364104 3.174870 -0.495912
v -1.915403 6.151136 0.473887
v -2.364104 3.185035 0.504036
vt 0.688708 0.437987
vt 0.750466 0.499745
vt 0.688708 0.499745
vt 0.750445 0.250852
vt 0.688938 0.436434
vt 0.688938 0.250852
vt 0.688828 0.437467
vt 0.625651 0.250220
vt 0.688828 0.250220
vt 0.813451 0.437533
vt 0.751092 0.499892
vt 0.751092 0.437533
vt 0.814086 0.250610
vt 0.750685 0.437096
vt 0.750685 0.250610
vt 0.875786 0.437224
vt 0.813937 0.251091
vt 0.875786 0.251091
vt 0.750466 0.437987
vt 0.750445 0.436434
vt 0.625651 0.437467
vt 0.813451 0.499892
vt 0.814086 0.437096
vt 0.813937 0.437224
vn 0.1496 0.9887 -0.0100
vn 0.0000 0.0102 0.9999
vn -0.9888 0.1496 -0.0015
vn -0.1496 -0.9887 0.0101
vn 0.9888 -0.1496 0.0015
vn -0.0000 -0.0102 -0.9999
vn -0.1496 -0.9887 0.0100
usemtl Texture_Test
s off
f 25/73/19 31/74/19 27/75/19
f 28/76/20 31/77/20 32/78/20
f 31/79/21 30/80/21 32/81/21
f 26/82/22 32/83/22 30/84/22
f 26/85/23 27/86/23 28/87/23
f 29/88/24 26/89/24 30/90/24
f 25/73/19 29/91/19 31/74/19
f 28/76/20 27/92/20 31/77/20
f 31/79/21 29/93/21 30/80/21
f 26/82/25 28/94/25 32/83/25
f 26/85/23 25/95/23 27/86/23
f 29/88/24 25/96/24 26/89/24
o Left_Leg_Cube.004
v 0.990727 3.050732 -0.518366
v 0.998999 0.053807 -0.382832
v 1.006778 3.095949 0.480482
v 1.015051 0.099024 0.616016
v -0.009141 3.048703 -0.502206
v -0.000868 0.051778 -0.366672
v 0.006911 3.093920 0.496643
v 0.015184 0.096994 0.632176
vt 0.123063 0.192104
vt 0.067263 0.247904
vt 0.067263 0.192104
vt 0.125948 0.187748
vt 0.063836 0.000539
vt 0.125948 0.000539
vt 0.063642 0.187226
vt 0.000967 0.000812
vt 0.063642 0.000812
vt 0.130160 0.190230
vt 0.184512 0.244581
vt 0.130160 0.244581
vt 0.187955 0.000912
vt 0.126280 0.187914
vt 0.126280 0.000912
vt 0.250462 -0.000553
vt 0.188163 0.187368
vt 0.188163 -0.000553
vt 0.123063 0.247904
vt 0.063836 0.187748
vt 0.000967 0.187226
vt 0.184512 0.190230
vt 0.187955 0.187914
vt 0.250462 0.187368
vn -0.0028 0.9990 -0.0452
vn 0.0161 0.0452 0.9988
vn -0.9999 -0.0020 0.0162
vn 0.0028 -0.9990 0.0452
vn 0.9999 0.0020 -0.0162
vn -0.0161 -0.0452 -0.9988
usemtl Texture_Test
s off
f 37/97/26 35/98/26 33/99/26
f 35/100/27 40/101/27 36/102/27
f 39/103/28 38/104/28 40/105/28
f 38/106/29 36/107/29 40/108/29
f 34/109/30 35/110/30 36/111/30
f 38/112/31 33/113/31 34/114/31
f 37/97/26 39/115/26 35/98/26
f 35/100/27 39/116/27 40/101/27
f 39/103/28 37/117/28 38/104/28
f 38/106/29 34/118/29 36/107/29
f 34/109/30 33/119/30 35/110/30
f 38/112/31 37/120/31 33/113/31
o Right_Leg_Cube.005
v 0.007502 3.048734 -0.504490
v -0.000329 0.051849 -0.368033
v -0.005433 3.094249 0.494390
v -0.013264 0.097364 0.630846
v -0.992411 3.050753 -0.517530
v -1.000242 0.053868 -0.381074
v -1.005345 3.096268 0.481350
v -1.013176 0.099383 0.617806
vt 0.062192 0.438446
vt 0.124537 0.500791
vt 0.062192 0.500791
vt 0.124958 0.251142
vt 0.061968 0.438068
vt 0.061968 0.251142
vt 0.061660 0.437761
vt 0.000105 0.250541
vt 0.061660 0.250541
vt 0.185021 0.440477
vt 0.126351 0.499147
vt 0.126351 0.440477
vt 0.187055 0.251184
vt 0.125285 0.438717
vt 0.125285 0.251184
vt 0.250234 0.437465
vt 0.187184 0.250093
vt 0.250234 0.250093
vt 0.124537 0.438446
vt 0.124958 0.438068
vt 0.000105 0.437761
vt 0.185021 0.499147
vt 0.187055 0.438717
vt 0.187184 0.437465
vn 0.0026 0.9990 -0.0455
vn -0.0129 0.0455 0.9989
vn -0.9999 0.0020 -0.0130
vn -0.0026 -0.9990 0.0455
vn 0.9999 -0.0020 0.0130
vn 0.0129 -0.0455 -0.9989
usemtl Texture_Test
s off
f 41/121/32 47/122/32 43/123/32
f 44/124/33 47/125/33 48/126/33
f 47/127/34 46/128/34 48/129/34
f 42/130/35 48/131/35 46/132/35
f 42/133/36 43/134/36 44/135/36
f 45/136/37 42/137/37 46/138/37
f 41/121/32 45/139/32 47/122/32
f 44/124/33 43/140/33 47/125/33
f 47/127/34 45/141/34 46/128/34
f 42/130/35 44/142/35 48/131/35
f 42/133/36 41/143/36 43/134/36
f 45/136/37 41/144/37 42/137/37
o Cube_Cube.006
v 21.206566 -2.369950 -6.030243
v 21.206566 2.369950 -6.030243
v 21.206566 -2.369950 3.445486
v 21.206566 2.369950 3.445486
v 29.140617 -2.369950 -6.030243
v 29.140617 2.369950 -6.030243
v 29.140617 -2.369950 3.445486
v 29.140617 2.369950 3.445486
vt 0.625000 0.000000
vt 0.375000 0.000000
vt 0.375000 0.250000
vt 0.625000 0.250000
vt 0.375000 0.500000
vt 0.625000 0.500000
vt 0.375000 0.750000
vt 0.625000 0.750000
vt 0.375000 1.000000
vt 0.125000 0.500000
vt 0.125000 0.750000
vt 0.875000 0.500000
vt 0.625000 1.000000
vt 0.875000 0.750000
vn -1.0000 0.0000 0.0000
vn 0.0000 0.0000 1.0000
vn 1.0000 0.0000 0.0000
vn 0.0000 0.0000 -1.0000
vn 0.0000 -1.0000 0.0000
vn 0.0000 1.0000 0.0000
usemtl None
s off
f 50/145/38 49/146/38 51/147/38
f 52/148/39 51/147/39 55/149/39
f 56/150/40 55/149/40 53/151/40
f 54/152/41 53/151/41 49/153/41
f 55/149/42 51/154/42 49/155/42
f 52/156/43 56/150/43 54/152/43
f 50/145/38 51/147/38 52/148/38
f 52/148/39 55/149/39 56/150/39
f 56/150/40 53/151/40 54/152/40
f 54/152/41 49/153/41 50/157/41
f 55/149/42 49/155/42 53/151/42
f 52/156/43 54/152/43 50/158/43
